<?xml version="1.0" encoding="UTF-8" standalone="no"?><!-- Generator: Gravit.io --><svg xmlns="http://www.w3.org/2000/svg" xmlns:xlink="http://www.w3.org/1999/xlink" style="isolation:isolate" viewBox="0 0 60 60" width="60pt" height="60pt"><defs><clipPath id="_clipPath_jgq8OwoTi5NB9a5CqaHJuENIqrITGBFE"><rect width="60" height="60"/></clipPath></defs><g clip-path="url(#_clipPath_jgq8OwoTi5NB9a5CqaHJuENIqrITGBFE)"><rect width="60" height="60" style="fill:rgb(60,78,215)" fill-opacity="0"/><g><path d=" M 7.389 21.473 C 6.146 21.673 5.14 22.406 4.601 23.504 C 4.066 24.588 4.066 25.681 4.606 26.783 C 4.819 27.225 4.902 27.347 5.271 27.706 C 5.869 28.304 6.403 28.591 7.18 28.751 C 9.09 29.144 11.013 27.901 11.475 25.982 C 11.582 25.54 11.582 24.733 11.475 24.286 C 11.164 22.994 10.1 21.911 8.798 21.566 C 8.502 21.488 7.656 21.435 7.389 21.473 Z " fill="rgb(0,24,200)"/><path d=" M 5.13 28.994 C 3.61 29.523 2.691 30.004 2.113 30.587 C 1.302 31.394 1.035 32.316 0.967 34.537 C 0.943 35.465 0.948 35.567 1.02 35.644 C 1.098 35.717 1.244 35.727 2.454 35.727 L 3.804 35.727 L 3.828 35.348 C 3.857 34.872 3.993 34.561 4.275 34.357 L 4.474 34.216 L 4.474 33.818 C 4.474 33.473 4.494 33.39 4.606 33.196 C 4.766 32.919 5.339 32.375 5.592 32.258 C 5.796 32.161 6.136 32.132 6.35 32.19 C 6.456 32.224 6.49 32.2 6.622 32.015 C 6.719 31.879 6.86 31.763 7.03 31.68 C 7.268 31.559 7.331 31.549 7.894 31.549 C 8.38 31.549 8.545 31.568 8.701 31.641 C 8.881 31.719 9.138 31.967 9.245 32.151 C 9.279 32.21 9.323 32.214 9.507 32.171 C 9.682 32.132 9.784 32.137 10.013 32.205 C 10.26 32.273 10.357 32.341 10.702 32.681 C 11.251 33.215 11.387 33.536 11.285 34.051 C 11.261 34.182 11.28 34.211 11.46 34.342 C 11.766 34.561 11.931 34.92 11.931 35.372 L 11.931 35.727 L 13.311 35.727 C 14.487 35.727 14.696 35.717 14.749 35.654 C 14.836 35.547 14.783 33.453 14.676 32.768 C 14.579 32.161 14.385 31.549 14.161 31.18 C 13.578 30.218 12.432 29.509 10.513 28.93 L 9.993 28.77 L 9.658 28.969 C 9.128 29.28 8.643 29.421 8.04 29.45 C 7.341 29.48 6.913 29.382 6.252 29.042 C 5.975 28.897 5.747 28.78 5.742 28.78 C 5.742 28.78 5.465 28.877 5.13 28.994 Z " fill="rgb(0,24,200)"/><path d=" M 51.643 21.473 C 50.399 21.673 49.393 22.406 48.854 23.504 C 48.32 24.588 48.32 25.681 48.859 26.783 C 49.073 27.225 49.155 27.347 49.524 27.706 C 50.122 28.304 50.656 28.591 51.434 28.751 C 53.343 29.144 55.267 27.901 55.728 25.982 C 55.835 25.54 55.835 24.733 55.728 24.286 C 55.417 22.994 54.353 21.911 53.051 21.566 C 52.755 21.488 51.91 21.435 51.643 21.473 Z " fill="rgb(0,24,200)"/><path d=" M 49.384 28.994 C 47.863 29.523 46.945 30.004 46.367 30.587 C 45.556 31.394 45.288 32.316 45.22 34.537 C 45.196 35.465 45.201 35.567 45.274 35.644 C 45.351 35.717 45.497 35.727 46.707 35.727 L 48.057 35.727 L 48.082 35.348 C 48.111 34.872 48.247 34.561 48.529 34.357 L 48.728 34.216 L 48.728 33.818 C 48.728 33.473 48.747 33.39 48.859 33.196 C 49.019 32.919 49.592 32.375 49.845 32.258 C 50.049 32.161 50.389 32.132 50.603 32.19 C 50.71 32.224 50.744 32.2 50.875 32.015 C 50.972 31.879 51.113 31.763 51.283 31.68 C 51.521 31.559 51.584 31.549 52.148 31.549 C 52.634 31.549 52.799 31.568 52.954 31.641 C 53.134 31.719 53.391 31.967 53.498 32.151 C 53.532 32.21 53.576 32.214 53.761 32.171 C 53.936 32.132 54.038 32.137 54.266 32.205 C 54.514 32.273 54.611 32.341 54.956 32.681 C 55.505 33.215 55.641 33.536 55.539 34.051 C 55.514 34.182 55.534 34.211 55.714 34.342 C 56.02 34.561 56.185 34.92 56.185 35.372 L 56.185 35.727 L 57.564 35.727 C 58.74 35.727 58.949 35.717 59.002 35.654 C 59.09 35.547 59.036 33.453 58.93 32.768 C 58.832 32.161 58.638 31.549 58.415 31.18 C 57.832 30.218 56.685 29.509 54.766 28.93 L 54.246 28.77 L 53.911 28.969 C 53.382 29.28 52.896 29.421 52.293 29.45 C 51.594 29.48 51.167 29.382 50.506 29.042 C 50.229 28.897 50 28.78 49.996 28.78 C 49.996 28.78 49.719 28.877 49.384 28.994 Z " fill="rgb(0,24,200)"/><rect x="3.613" y="30.735" width="8.623" height="4.991" transform="matrix(1,0,0,1,0,0)" fill="rgb(0,24,200)"/><rect x="47.414" y="30.67" width="9.85" height="5.057" transform="matrix(1,0,0,1,0,0)" fill="rgb(0,24,200)"/><g><path d=" M 11.463 45.346 C 10.098 44.614 8.578 43.081 7.973 41.828 C 7.607 41.097 7.748 40.548 8.353 40.252 C 8.958 39.971 9.408 40.196 10.013 41.097 C 10.52 41.885 11.294 42.63 12.518 43.517 C 13.292 44.08 13.432 44.699 12.926 45.248 C 12.56 45.642 12.068 45.67 11.463 45.346 Z " fill="rgb(0,24,200)"/><path d=" M 47.006 45.248 C 46.499 44.699 46.64 44.08 47.414 43.517 C 48.638 42.63 49.412 41.885 49.918 41.097 C 50.523 40.196 50.973 39.971 51.579 40.252 C 52.184 40.548 52.324 41.097 51.958 41.828 C 51.522 42.729 50.622 43.798 49.707 44.502 C 48.187 45.656 47.554 45.839 47.006 45.248 Z " fill="rgb(0,24,200)"/><g><rect x="23.493" y="46.148" width="12.664" height="7.299" transform="matrix(1,0,0,1,0,0)" fill="rgb(0,24,200)"/><path d=" M 29.288 33.503 C 27.548 33.781 26.141 34.808 25.386 36.344 C 24.639 37.86 24.639 39.389 25.393 40.932 C 25.692 41.551 25.808 41.721 26.324 42.224 C 27.161 43.06 27.908 43.461 28.996 43.686 C 31.667 44.236 34.359 42.496 35.005 39.811 C 35.155 39.192 35.155 38.064 35.005 37.438 C 34.57 35.63 33.081 34.114 31.26 33.632 C 30.845 33.523 29.662 33.448 29.288 33.503 Z " fill="rgb(0,24,200)"/><path d=" M 26.127 44.026 C 24 44.767 22.715 45.44 21.906 46.255 C 20.771 47.384 20.397 48.675 20.302 51.782 C 20.268 53.08 20.274 53.223 20.376 53.332 C 20.485 53.434 20.689 53.447 22.382 53.447 L 24.272 53.447 L 24.305 52.917 C 24.346 52.251 24.537 51.816 24.931 51.53 L 25.21 51.333 L 25.21 50.776 C 25.21 50.293 25.237 50.178 25.393 49.906 C 25.618 49.518 26.42 48.757 26.773 48.594 C 27.059 48.458 27.534 48.417 27.834 48.499 C 27.983 48.546 28.031 48.512 28.214 48.254 C 28.35 48.063 28.547 47.9 28.785 47.785 C 29.118 47.615 29.207 47.601 29.995 47.601 C 30.675 47.601 30.906 47.628 31.124 47.73 C 31.375 47.839 31.736 48.186 31.885 48.444 C 31.933 48.526 31.994 48.532 32.252 48.471 C 32.497 48.417 32.64 48.424 32.959 48.519 C 33.306 48.614 33.442 48.709 33.924 49.185 C 34.693 49.933 34.883 50.381 34.74 51.102 C 34.706 51.286 34.733 51.326 34.985 51.51 C 35.413 51.816 35.644 52.319 35.644 52.951 L 35.644 53.447 L 37.575 53.447 C 39.22 53.447 39.512 53.434 39.587 53.345 C 39.709 53.196 39.634 50.266 39.485 49.307 C 39.349 48.458 39.077 47.601 38.764 47.085 C 37.949 45.739 36.344 44.746 33.659 43.937 L 32.932 43.713 L 32.463 43.991 C 31.722 44.427 31.042 44.624 30.199 44.664 C 29.22 44.705 28.622 44.569 27.698 44.093 C 27.31 43.89 26.991 43.726 26.984 43.726 C 26.984 43.726 26.596 43.862 26.127 44.026 Z " fill="rgb(0,24,200)"/></g><path d=" M 7.818 17.852 C 7.227 17.387 7.312 16.74 8.128 15.474 C 10.956 11.084 16.655 8.072 24.478 6.876 C 26.167 6.609 27.109 6.553 29.966 6.553 C 32.822 6.553 33.765 6.609 35.453 6.876 C 43.277 8.072 48.975 11.084 51.804 15.474 C 52.62 16.74 52.704 17.387 52.113 17.852 C 51.41 18.4 50.875 18.147 50.157 16.909 C 48.131 13.377 43.08 10.479 36.86 9.297 C 34.314 8.818 32.794 8.677 29.966 8.677 C 23.226 8.677 17.358 10.296 13.151 13.293 C 11.955 14.151 10.407 15.811 9.774 16.909 C 9.056 18.147 8.522 18.4 7.818 17.852 L 7.818 17.852 Z " fill="rgb(0,24,200)"/></g></g></g></svg>